# xmcd
#
# Track frame offsets: 
#        150
#        19347
#        34286
#        48765
#        66912
#        83050
#        100296
#        116989
#        133499
#        152200
#        167844
#        183871
#        198922
#
# Disc length: 2896 seconds
#
# Revision: 0
# Processed by: cddbd v1.5.2PL0 Copyright (c) Steve Scherf et al.
# Submitted via: ExactAudioCopy v1.0b1
#
DISCID=b70b4e0d
DTITLE=如夢 (梁珈瑜) - 如夢 如影
DYEAR=2011
DGENRE=Pop-Folk
TTITLE0=眼淚為你流
TTITLE1=迷惑
TTITLE2=身外情
TTITLE3=不拖不欠
TTITLE4=心動
TTITLE5=追
TTITLE6=似是故人來
TTITLE7=一段情
TTITLE8=當愛巳成往事
TTITLE9=似夢迷離
TTITLE10=赤子
TTITLE11=今生今世
TTITLE12=天若有情
EXTD=
EXTT0=
EXTT1=
EXTT2=
EXTT3=
EXTT4=
EXTT5=
EXTT6=
EXTT7=
EXTT8=
EXTT9=
EXTT10=
EXTT11=
EXTT12=
PLAYORDER=
